<svg xmlns="http://www.w3.org/2000/svg" xmlns:xlink="http://www.w3.org/1999/xlink" viewBox="0 0 512.06 512"><defs><symbol id="a" data-name="Arrow 25" viewBox="0 0 45.72 26.28"><path style="stroke-width:0;fill:none" d="M0 0h45.72v26.28H0z"/><path style="fill:#231f20;stroke-width:0" d="M0 16.31h22.93v9.97l22.79-13.14L22.93 0v9.97H0v6.34z"/></symbol></defs><path style="stroke-linecap:round;stroke-linejoin:round;stroke:#3fa9f5;stroke-width:14px;fill:none" d="M282.06 282h-231"/><path d="M51.06 51v231h231l226 226v-98l-47 51M4.06 4l47 47 48-47m409 94V5.87" style="fill:none;stroke-linecap:round;stroke-linejoin:round;stroke-width:8px;stroke:#000"/><path d="m121.16 220.51 17.93 4.66-4.76 17.76 4.58-17.16a.368.368 0 0 0-.43-.46c-27.71 6.97-46.44 108.31 24.33 118.95 80.93 12.17 80.59-90.41 80.59-90.41" style="stroke-width:8px;stroke:#c1272d;stroke-linecap:round;stroke-linejoin:round;fill:none"/><text transform="translate(170.26 229.4)" style="fill:#c1272d;font-family:ForteMT,Forte;font-size:36px"><tspan x="0" y="0">W</tspan></text><use width="45.72" height="26.28" transform="rotate(179.76 22.747 146.998) scale(1.01 .99)" xlink:href="#a"/><use width="45.72" height="26.28" transform="rotate(133.34 79.328 219.344) scale(1.01 .99)" xlink:href="#a"/></svg>