<svg xmlns="http://www.w3.org/2000/svg" xmlns:xlink="http://www.w3.org/1999/xlink" viewBox="0 0 414 306"><defs><symbol id="a" data-name="Arrow 25" viewBox="0 0 45.72 26.28"><path style="stroke-width:0;fill:none" d="M0 0h45.72v26.28H0z"/><path style="fill:#231f20;stroke-width:0" d="M0 16.31h22.93v9.97l22.79-13.14L22.93 0v9.97H0v6.34z"/></symbol></defs><path style="stroke-linecap:round;stroke-linejoin:round;stroke:#3fa9f5;stroke-width:14px;fill:none" d="M333 81 115 299"/><path d="M332.6 80.6 115.4 299.4M256 4l154 154M282 30l26-26m25.2 26-25.6 25.6m51.2 0-25.6 25.6m51.2 0-25.6 25.6m51.2 0-25.6 25.6" style="fill:none;stroke-linecap:round;stroke-linejoin:round;stroke-width:8px;stroke:#000"/><path d="m185.11 109.51 17.93 4.66-4.76 17.76 4.58-17.16a.368.368 0 0 0-.43-.46c-27.71 6.97-46.44 108.31 24.33 118.95 80.93 12.17 80.59-90.41 80.59-90.41" style="stroke-width:8px;stroke:#c1272d;stroke-linecap:round;stroke-linejoin:round;fill:none"/><text transform="translate(234.2 118.4)" style="fill:#c1272d;font-family:ForteMT,Forte;font-size:36px"><tspan x="0" y="0">W</tspan></text><use width="45.72" height="26.28" transform="matrix(-.71218 -.71617 .70199 -.69808 97 298.48)" xlink:href="#a"/></svg>